# xmcd CD database file
#
# Track frame offsets:
#	150
#	26422
#	43411
#	63279
#	87435
#	101931
#	117639
#	142240
#	163756
#	183809
#	199218
#	222847
#	242692
#	266315
#	281882
#
# Disc length: 3971 seconds
#
# Revision: 3
# Processed by: cddbd v1.5PL3 Copyright (c) Steve Scherf et al.
# Submitted via: CDex 1.51
#
DISCID=ea0f810f
DTITLE=Royal Society Jazz Orchestra - Sweet and Low-Down
DYEAR=2003
DGENRE=Jazz
TTITLE0=Ain;t Misbehavin'
TTITLE1=The Boy in the Boat
TTITLE2=Bungee Jump
TTITLE3=Can't We Be Friends
TTITLE4=At the Gatsby
TTITLE5=How Come You Do
TTITLE6=I Can't Believe that You're in Love with Me
TTITLE7=Oh, Lady be Good
TTITLE8=If I had a Million Dollars
TTITLE9=Paper Moon
TTITLE10=Paramount Waltz
TTITLE11=Sweet and Low Down
TTITLE12=Sweet Sue
TTITLE13=What a Day
TTITLE14=Old Yazoo
EXTD=YEAR: 2003
EXTT0=
EXTT1=
EXTT2=
EXTT3=
EXTT4=
EXTT5=
EXTT6=
EXTT7=
EXTT8=
EXTT9=
EXTT10=
EXTT11=
EXTT12=
EXTT13=
EXTT14=
PLAYORDER=
